<svg viewBox="0 0 1000 900" xmlns="http://www.w3.org/2000/svg" role="img" font-family="Segoe UI, Roboto, Arial, sans-serif">
<title>ESP32 38-pin all-in-one co-processor pinout — CC1101 + IR</title>
<desc>NodeMCU-32S (ESP32-D0WD-V3, 38-pin) wired as a single Sub-GHz/IR co-processor for Acid Zero. Board shown with the USB connector at the TOP (matching how the board is held: CLK is the top-left pin, 5V the top-right). CC1101 on GDO0=D4, CSN=D5, SCK=D18, MOSI=D19, MISO=D23 (matches committed firmware/esp32-cc1101). IR TX=D13, RX=D14 (matches committed firmware/esp32-ir). The ESP32 talks to the Raspberry Pi over its own USB cable (/dev/ttyUSB* or /dev/ttyACM*). GPS is NOT on this board - it wires to the Pi's own UART (GPIO14/15, /dev/serial0), see launcher/acid_gps.py. Flash pins CLK/SD0/SD1/SD2/SD3/CMD, strapping pins P0/P2/P15/P12, and USB0 RX/TX are reserved - never wire signals to them. GPIO34/35/36(SVP)/39(SVN) are input-only.</desc>
<rect x="0" y="0" width="1000" height="900" rx="14" fill="#0e1525"/>
<text x="500" y="38" text-anchor="middle" fill="#e8eef7" font-size="24" font-weight="700">ESP32 38-pin — All-in-One CC1101 + IR Co-Processor</text>
<text x="500" y="60" text-anchor="middle" fill="#8a97ab" font-size="13">Acid Zero · NodeMCU-32S (ESP32-D0WD-V3) · one board, one USB cable to the Pi · GPS is separate (Pi's own UART)</text>

<!-- ============ board ============ -->
<rect x="430" y="136" width="140" height="494" rx="10" fill="#16181d" stroke="#30343f" stroke-width="2"/>
<text x="500" y="356" text-anchor="middle" fill="#aab3c2" font-size="14" font-weight="600">ESP32</text>
<text x="500" y="374" text-anchor="middle" fill="#7c8696" font-size="11">D0WD-V3</text>
<text x="500" y="392" text-anchor="middle" fill="#5a6270" font-size="10">NodeMCU-32S · 38-pin</text>
<rect x="466" y="150" width="68" height="20" rx="3" fill="#9aa1ad"/>
<text x="500" y="164" text-anchor="middle" fill="#2a2e36" font-size="9" font-weight="700">USB → Pi</text>
<text x="500" y="186" text-anchor="middle" fill="#5a6270" font-size="9">(USB at top)</text>

<!-- ============ LEFT column (19 pins, USB at top -> CLK top ... GND bottom) ============ -->
<g font-size="13">
<!-- row0 CLK -->
<text x="60" y="152" fill="#5a6270" font-size="11">flash (reserved)</text><rect x="330" y="142" width="14" height="12" rx="2" fill="#3a3f49"/><text x="352" y="152" fill="#6b7585" font-size="11">CLK</text>
<!-- row1 SD0 -->
<text x="60" y="178" fill="#5a6270" font-size="11">flash (reserved)</text><rect x="330" y="168" width="14" height="12" rx="2" fill="#3a3f49"/><text x="352" y="178" fill="#6b7585" font-size="11">SD0</text>
<!-- row2 SD1 -->
<text x="60" y="204" fill="#5a6270" font-size="11">flash (reserved)</text><rect x="330" y="194" width="14" height="12" rx="2" fill="#3a3f49"/><text x="352" y="204" fill="#6b7585" font-size="11">SD1</text>
<!-- row3 P15 -->
<text x="60" y="230" fill="#5a6270" font-size="11">strap (avoid)</text><rect x="330" y="220" width="14" height="12" rx="2" fill="#3a3f49"/><text x="352" y="230" fill="#6b7585" font-size="11">P15</text>
<!-- row4 P2 -->
<text x="60" y="256" fill="#5a6270" font-size="11">strap (avoid)</text><rect x="330" y="246" width="14" height="12" rx="2" fill="#3a3f49"/><text x="352" y="256" fill="#6b7585" font-size="11">P2</text>
<!-- row5 P0 -->
<text x="60" y="282" fill="#5a6270" font-size="11">strap (avoid)</text><rect x="330" y="272" width="14" height="12" rx="2" fill="#3a3f49"/><text x="352" y="282" fill="#6b7585" font-size="11">P0</text>
<!-- row6 P4 -> CC1101 GDO0 -->
<text x="60" y="308" fill="#e8eef7" font-weight="700">CC1101 GDO0</text><rect x="330" y="298" width="14" height="12" rx="2" fill="#ffb02e"/><text x="352" y="308" fill="#e8eef7" font-weight="700">P4</text>
<!-- row7 P16 free -->
<text x="60" y="334" fill="#4a5262" font-size="11">free / spare</text><rect x="330" y="324" width="14" height="12" rx="2" fill="#242833"/><text x="352" y="334" fill="#4a5262" font-size="11">P16</text>
<!-- row8 P17 free -->
<text x="60" y="360" fill="#4a5262" font-size="11">free / spare</text><rect x="330" y="350" width="14" height="12" rx="2" fill="#242833"/><text x="352" y="360" fill="#4a5262" font-size="11">P17</text>
<!-- row9 P5 -> CC1101 CSN -->
<text x="60" y="386" fill="#e8eef7" font-weight="700">CC1101 CSN</text><rect x="330" y="376" width="14" height="12" rx="2" fill="#45c46a"/><text x="352" y="386" fill="#e8eef7" font-weight="700">P5</text>
<!-- row10 P18 -> CC1101 SCK -->
<text x="60" y="412" fill="#e8eef7" font-weight="700">CC1101 SCK</text><rect x="330" y="402" width="14" height="12" rx="2" fill="#4aa3ff"/><text x="352" y="412" fill="#e8eef7" font-weight="700">P18</text>
<!-- row11 P19 -> CC1101 MOSI -->
<text x="60" y="438" fill="#e8eef7" font-weight="700">CC1101 MOSI</text><rect x="330" y="428" width="14" height="12" rx="2" fill="#b06cff"/><text x="352" y="438" fill="#e8eef7" font-weight="700">P19</text>
<!-- row12 GND -->
<text x="60" y="464" fill="#cfd7e3">GND</text><rect x="330" y="454" width="14" height="12" rx="2" fill="#9aa4b2"/><text x="352" y="464" fill="#cfd7e3">GND</text>
<!-- row13 P21 free -->
<text x="60" y="490" fill="#4a5262" font-size="11">free / spare</text><rect x="330" y="480" width="14" height="12" rx="2" fill="#242833"/><text x="352" y="490" fill="#4a5262" font-size="11">P21</text>
<!-- row14 RX (U0RXD, GPIO3) -->
<text x="60" y="516" fill="#5a6270" font-size="11">USB flash/debug (U0RXD=GPIO3)</text><rect x="330" y="506" width="14" height="12" rx="2" fill="#3a3f49"/><text x="352" y="516" fill="#6b7585" font-size="11">RX</text>
<!-- row15 TX (U0TXD, GPIO1) -->
<text x="60" y="542" fill="#5a6270" font-size="11">USB flash/debug (U0TXD=GPIO1)</text><rect x="330" y="532" width="14" height="12" rx="2" fill="#3a3f49"/><text x="352" y="542" fill="#6b7585" font-size="11">TX</text>
<!-- row16 P22 free -->
<text x="60" y="568" fill="#4a5262" font-size="11">free / spare</text><rect x="330" y="558" width="14" height="12" rx="2" fill="#242833"/><text x="352" y="568" fill="#4a5262" font-size="11">P22</text>
<!-- row17 P23 -> CC1101 MISO -->
<text x="60" y="594" fill="#e8eef7" font-weight="700">CC1101 MISO</text><rect x="330" y="584" width="14" height="12" rx="2" fill="#2ad0e0"/><text x="352" y="594" fill="#e8eef7" font-weight="700">P23</text>
<!-- row18 GND -->
<text x="60" y="620" fill="#cfd7e3">GND</text><rect x="330" y="610" width="14" height="12" rx="2" fill="#9aa4b2"/><text x="352" y="620" fill="#cfd7e3">GND</text>
</g>

<!-- ============ RIGHT column (19 pins, USB at top -> 5V top ... 3V3 bottom) ============ -->
<g font-size="13">
<!-- row0 5V -->
<text x="940" y="152" text-anchor="end" fill="#e8eef7" font-weight="700">5V IN (USB)</text><rect x="656" y="142" width="14" height="12" rx="2" fill="#ff5a5a"/><text x="648" y="152" text-anchor="end" fill="#e8eef7" font-weight="700">5V</text>
<!-- row1 CMD -->
<text x="940" y="178" text-anchor="end" fill="#5a6270" font-size="11">flash (reserved)</text><rect x="656" y="168" width="14" height="12" rx="2" fill="#3a3f49"/><text x="648" y="178" text-anchor="end" fill="#6b7585" font-size="11">CMD</text>
<!-- row2 SD3 -->
<text x="940" y="204" text-anchor="end" fill="#5a6270" font-size="11">flash (reserved)</text><rect x="656" y="194" width="14" height="12" rx="2" fill="#3a3f49"/><text x="648" y="204" text-anchor="end" fill="#6b7585" font-size="11">SD3</text>
<!-- row3 SD2 -->
<text x="940" y="230" text-anchor="end" fill="#5a6270" font-size="11">flash (reserved)</text><rect x="656" y="220" width="14" height="12" rx="2" fill="#3a3f49"/><text x="648" y="230" text-anchor="end" fill="#6b7585" font-size="11">SD2</text>
<!-- row4 P13 -> IR TX -->
<text x="940" y="256" text-anchor="end" fill="#e8eef7" font-weight="700">IR TX → LED driver</text><rect x="656" y="246" width="14" height="12" rx="2" fill="#ff8a3d"/><text x="648" y="256" text-anchor="end" fill="#e8eef7" font-weight="700">P13</text>
<!-- row5 GND -->
<text x="940" y="282" text-anchor="end" fill="#cfd7e3">GND</text><rect x="656" y="272" width="14" height="12" rx="2" fill="#9aa4b2"/><text x="648" y="282" text-anchor="end" fill="#cfd7e3">GND</text>
<!-- row6 P12 -->
<text x="940" y="308" text-anchor="end" fill="#4a5262" font-size="11">free (strap-caution)</text><rect x="656" y="298" width="14" height="12" rx="2" fill="#242833"/><text x="648" y="308" text-anchor="end" fill="#4a5262" font-size="11">P12</text>
<!-- row7 P14 -> IR RX -->
<text x="940" y="334" text-anchor="end" fill="#e8eef7" font-weight="700">IR RX ← TSOP OUT</text><rect x="656" y="324" width="14" height="12" rx="2" fill="#c96426"/><text x="648" y="334" text-anchor="end" fill="#e8eef7" font-weight="700">P14</text>
<!-- row8 P27 free -->
<text x="940" y="360" text-anchor="end" fill="#4a5262" font-size="11">free / spare</text><rect x="656" y="350" width="14" height="12" rx="2" fill="#242833"/><text x="648" y="360" text-anchor="end" fill="#4a5262" font-size="11">P27</text>
<!-- row9 P26 free -->
<text x="940" y="386" text-anchor="end" fill="#4a5262" font-size="11">free / spare</text><rect x="656" y="376" width="14" height="12" rx="2" fill="#242833"/><text x="648" y="386" text-anchor="end" fill="#4a5262" font-size="11">P26</text>
<!-- row10 P25 free -->
<text x="940" y="412" text-anchor="end" fill="#4a5262" font-size="11">free / spare</text><rect x="656" y="402" width="14" height="12" rx="2" fill="#242833"/><text x="648" y="412" text-anchor="end" fill="#4a5262" font-size="11">P25</text>
<!-- row11 P33 free -->
<text x="940" y="438" text-anchor="end" fill="#4a5262" font-size="11">free / spare</text><rect x="656" y="428" width="14" height="12" rx="2" fill="#242833"/><text x="648" y="438" text-anchor="end" fill="#4a5262" font-size="11">P33</text>
<!-- row12 P32 free -->
<text x="940" y="464" text-anchor="end" fill="#4a5262" font-size="11">free / spare</text><rect x="656" y="454" width="14" height="12" rx="2" fill="#242833"/><text x="648" y="464" text-anchor="end" fill="#4a5262" font-size="11">P32</text>
<!-- row13 P35 input-only -->
<text x="940" y="490" text-anchor="end" fill="#4a5262" font-size="11">free · input-only</text><rect x="656" y="480" width="14" height="12" rx="2" fill="#242833"/><text x="648" y="490" text-anchor="end" fill="#4a5262" font-size="11">P35</text>
<!-- row14 P34 input-only -->
<text x="940" y="516" text-anchor="end" fill="#4a5262" font-size="11">free · input-only</text><rect x="656" y="506" width="14" height="12" rx="2" fill="#242833"/><text x="648" y="516" text-anchor="end" fill="#4a5262" font-size="11">P34</text>
<!-- row15 SVN = GPIO39 input-only -->
<text x="940" y="542" text-anchor="end" fill="#4a5262" font-size="11">GPIO39 · input-only</text><rect x="656" y="532" width="14" height="12" rx="2" fill="#242833"/><text x="648" y="542" text-anchor="end" fill="#4a5262" font-size="11">SVN</text>
<!-- row16 SVP = GPIO36 input-only -->
<text x="940" y="568" text-anchor="end" fill="#4a5262" font-size="11">GPIO36 · input-only</text><rect x="656" y="558" width="14" height="12" rx="2" fill="#242833"/><text x="648" y="568" text-anchor="end" fill="#4a5262" font-size="11">SVP</text>
<!-- row17 EN -->
<text x="940" y="594" text-anchor="end" fill="#5a6270" font-size="11">reset / enable</text><rect x="656" y="584" width="14" height="12" rx="2" fill="#3a3f49"/><text x="648" y="594" text-anchor="end" fill="#6b7585" font-size="11">EN</text>
<!-- row18 3V3 -->
<text x="940" y="620" text-anchor="end" fill="#e8eef7" font-weight="700">Power 3V3 → all modules</text><rect x="656" y="610" width="14" height="12" rx="2" fill="#ff5a5a"/><text x="648" y="620" text-anchor="end" fill="#e8eef7" font-weight="700">3V3</text>
</g>

<!-- ============ legend ============ -->
<text x="60" y="672" fill="#e8eef7" font-size="15" font-weight="700">Legend</text>
<g font-size="13">
<rect x="60" y="688" width="24" height="13" rx="2" fill="#ffb02e"/><text x="94" y="699" fill="#cfd7e3">CC1101 GDO0 — D4</text>
<rect x="60" y="712" width="24" height="13" rx="2" fill="#45c46a"/><text x="94" y="723" fill="#cfd7e3">CC1101 CSN — D5</text>
<rect x="60" y="736" width="24" height="13" rx="2" fill="#4aa3ff"/><text x="94" y="747" fill="#cfd7e3">CC1101 SCK — D18</text>
<rect x="60" y="760" width="24" height="13" rx="2" fill="#b06cff"/><text x="94" y="771" fill="#cfd7e3">CC1101 MOSI — D19</text>
<rect x="60" y="784" width="24" height="13" rx="2" fill="#2ad0e0"/><text x="94" y="795" fill="#cfd7e3">CC1101 MISO — D23</text>

<rect x="330" y="688" width="24" height="13" rx="2" fill="#ff8a3d"/><text x="364" y="699" fill="#cfd7e3">IR TX — D13</text>
<rect x="330" y="712" width="24" height="13" rx="2" fill="#c96426"/><text x="364" y="723" fill="#cfd7e3">IR RX — D14</text>

<rect x="600" y="688" width="24" height="13" rx="2" fill="#ff5a5a"/><text x="634" y="699" fill="#cfd7e3">3V3 / 5V power</text>
<rect x="600" y="712" width="24" height="13" rx="2" fill="#9aa4b2"/><text x="634" y="723" fill="#cfd7e3">GND</text>

<rect x="810" y="688" width="20" height="13" rx="2" fill="#3a3f49"/><text x="838" y="699" fill="#8a97ab" font-size="11">reserved (flash/strap)</text>
<rect x="810" y="712" width="20" height="13" rx="2" fill="#242833"/><text x="838" y="723" fill="#8a97ab" font-size="11">free / spare</text>
</g>

<text x="500" y="836" text-anchor="middle" fill="#8a97ab" font-size="12">CC1101 + IR pins match the already-committed firmware/esp32-cc1101 and firmware/esp32-ir sketches exactly — unchanged, now merged onto one board.</text>
<text x="500" y="856" text-anchor="middle" fill="#8a97ab" font-size="12">ESP32 ↔ Pi is a plain USB cable (power + serial). GPS is NOT here — wire it straight to the Pi's own GPIO14/15 UART instead (see acid_gps.py). GDO2 not connected.</text>
<text x="500" y="880" text-anchor="middle" fill="#5a6270" font-size="11">Board: ESP32-D0WD-V3 rev v3.1 · 4MB flash · MAC 88:f1:55:32:16:90 · flashed via COM6</text>
</svg>
